# xmcd
#
# Track frame offsets:
#	300
#	15722
#	36534
#	52612
#	72529
#	91927
#	108520
#	129398
#	142148
#	167966
#
# Disc length: 2413 seconds
# Revision: 0
# Processed by: cddbd v1.5.2PL0 Copyright (c) Steve Scherf et al.
# Submitted via: dBpowerAMP V12.0
#
DISCID=8f09690a
DTITLE=Yuta Tanaka - If The Time Still Goes Around
DYEAR=2017
DGENRE=Acoustic
TTITLE0=Pieces Of Heartache
TTITLE1=Strawberry Moon
TTITLE2=Song For Camphor Tree
TTITLE3=If The Time Still Goes Around
TTITLE4=Even If It's No Sun To Set
TTITLE5=Senja Di Melaka
TTITLE6=Citylights Of August
TTITLE7=Cold Limelight
TTITLE8=Harbour Side Blues
TTITLE9=Deep Ocean In The Sky
EXTD=
EXTT0=
EXTT1=
EXTT2=
EXTT3=
EXTT4=
EXTT5=
EXTT6=
EXTT7=
EXTT8=
EXTT9=
PLAYORDER=
